<svg width="45" height="46" viewBox="0 0 45 46" fill="none" xmlns="http://www.w3.org/2000/svg">
<path d="M41.7415 3.89326C41.0707 3.22273 40.1679 2.83577 39.2197 2.81246C38.2716 2.78915 37.3508 3.13128 36.6479 3.76805L29.2879 10.4338L25.3227 14.2668L29.8069 7.36318C31.0354 5.471 29.747 2.9597 27.4931 2.85257C26.8819 2.82361 26.277 2.9873 25.7637 3.32056C25.2505 3.65381 24.8548 4.1398 24.6326 4.70996L20.1777 16.127C18.7651 15.8918 17.3147 16.1479 16.0681 16.8526C14.8215 17.5573 13.8542 18.668 13.3274 19.9996C12.8006 21.3311 12.7462 22.803 13.1732 24.1699C13.6002 25.5367 14.4829 26.7158 15.674 27.5107V33.4348C15.674 36.5472 14.394 38.4254 12.833 39.5482C11.2357 40.6974 9.30182 41.087 8.02182 41.087C7.83733 41.087 7.66038 41.1603 7.52992 41.2908C7.39946 41.4212 7.32617 41.5982 7.32617 41.7827C7.32617 41.9672 7.39946 42.1441 7.52992 42.2746C7.66038 42.405 7.83733 42.4783 8.02182 42.4783C9.52443 42.4783 11.763 42.0331 13.6455 40.678C15.5641 39.2964 17.0653 37.0007 17.0653 33.4348V28.2091C17.5087 28.3668 17.9724 28.473 18.4566 28.5277V41.7827C18.4566 41.9672 18.5299 42.1441 18.6604 42.2746C18.7908 42.405 18.9678 42.4783 19.1523 42.4783C19.3368 42.4783 19.5137 42.405 19.6442 42.2746C19.7746 42.1441 19.8479 41.9672 19.8479 41.7827V28.5277C20.3224 28.4744 20.7892 28.3671 21.2392 28.2077V33.4348C21.2392 36.7434 22.7585 38.9694 24.6507 40.376C26.515 41.7618 28.7328 42.3517 30.2243 42.4769C30.4082 42.4924 30.5908 42.4342 30.7318 42.3151C30.8728 42.196 30.9608 42.0257 30.9763 41.8418C30.9918 41.6578 30.9335 41.4753 30.8144 41.3342C30.6953 41.1932 30.5251 41.1053 30.3411 41.0898C29.05 40.9813 27.0938 40.4595 25.4799 39.2588C23.8938 38.0818 22.6305 36.248 22.6305 33.4348V27.5107C23.4867 26.9386 24.1886 26.1642 24.6739 25.2561C25.1593 24.3479 25.4132 23.3341 25.4131 22.3044C25.4131 21.3235 25.1877 20.3955 24.787 19.5705L33.018 14.68L33.0319 14.6717L41.0862 9.64074C41.5574 9.34606 41.9562 8.94886 42.2527 8.47873C42.5492 8.00859 42.7358 7.47763 42.7986 6.92537C42.8615 6.37311 42.7989 5.8138 42.6157 5.28906C42.4324 4.76433 42.1331 4.28769 41.7401 3.89466M37.5801 4.80039C37.8171 4.58581 38.0962 4.42292 38.3997 4.32208C38.7031 4.22124 39.0242 4.18466 39.3425 4.21467C39.6609 4.24467 39.9695 4.34061 40.2487 4.49637C40.5279 4.65213 40.7717 4.86431 40.9645 5.1194C41.1572 5.3745 41.2948 5.66692 41.3684 5.97808C41.442 6.28923 41.4501 6.6123 41.392 6.92673C41.334 7.24116 41.2111 7.54007 41.0313 7.80444C40.8514 8.06881 40.6185 8.29285 40.3474 8.46231L32.3001 13.4877L22.1617 19.512C22.1423 19.5268 22.1178 19.5333 22.0937 19.53C22.0696 19.5267 22.0477 19.514 22.033 19.4947C22.0182 19.4753 22.0117 19.4508 22.015 19.4267C22.0183 19.4026 22.031 19.3807 22.0503 19.366L30.2382 11.4494L37.5801 4.80039ZM27.4263 4.24387C27.6953 4.25671 27.9561 4.34029 28.1825 4.48616C28.4088 4.63203 28.5927 4.83504 28.7154 5.07469C28.8382 5.31434 28.8956 5.58214 28.8818 5.85106C28.868 6.11998 28.7835 6.3805 28.6368 6.60631L22.049 16.7545C21.8762 16.6655 21.6998 16.5838 21.5203 16.5096L25.9279 5.21639C26.0442 4.91754 26.2513 4.66276 26.5202 4.48801C26.7891 4.31326 27.106 4.22737 27.4263 4.24248" fill="white"/>
<path d="M23.8661 28.3329C24.7823 27.6178 25.5232 26.703 26.0324 25.6583C26.5416 24.6137 26.8057 23.4665 26.8046 22.3043C26.8056 21.1149 26.5293 19.9416 25.9976 18.8776C26.9432 18.8378 27.8801 19.0728 28.6949 19.5543C29.5098 20.0358 30.1676 20.7431 30.5889 21.5906L39.1816 38.815C39.3438 39.1403 39.386 39.5124 39.3009 39.8657C39.2157 40.2191 39.0087 40.5311 38.7161 40.7469C38.4236 40.9626 38.0643 41.0683 37.7016 41.0452C37.3388 41.0222 36.9958 40.8719 36.7329 40.6209L23.8661 28.3329ZM10.9743 29.9064C11.145 29.9398 11.3203 29.9565 11.5002 29.9565C12.1317 29.9566 12.7444 29.742 13.2378 29.3478C13.7311 28.9536 14.0757 28.4033 14.2149 27.7874C14.3541 27.1714 14.2797 26.5265 14.0038 25.9584C13.728 25.3904 13.2672 24.933 12.697 24.6616C12.1269 24.3901 11.4814 24.3206 10.8665 24.4645C10.2516 24.6085 9.70404 24.9573 9.31364 25.4536C8.92324 25.9499 8.71327 26.5643 8.71822 27.1958C8.72318 27.8272 8.94277 28.4382 9.34092 28.9283L3.19692 41.7798C3.14566 41.8928 3.13969 42.0211 3.18024 42.1383C3.2208 42.2555 3.30479 42.3526 3.41489 42.4097C3.52498 42.4668 3.65279 42.4795 3.77196 42.4451C3.89113 42.4108 3.99256 42.332 4.05535 42.225L10.9743 29.9064ZM11.6741 27.8696C11.6741 28.1002 11.5825 28.3214 11.4194 28.4844C11.2564 28.6475 11.0352 28.7391 10.8046 28.7391C10.5739 28.7391 10.3528 28.6475 10.1897 28.4844C10.0266 28.3214 9.935 28.1002 9.935 27.8696C9.935 27.6389 10.0266 27.4178 10.1897 27.2547C10.3528 27.0916 10.5739 27 10.8046 27C11.0352 27 11.2564 27.0916 11.4194 27.2547C11.5825 27.4178 11.6741 27.6389 11.6741 27.8696Z" fill="white"/>
</svg>
